<svg xmlns:xlink="http://www.w3.org/1999/xlink" preserveAspectRatio="xMidYMid meet" data-bbox="28.5 37.5 143 125" viewBox="28.5 37.5 143 125" height="200" width="200" xmlns="http://www.w3.org/2000/svg" data-type="color" role="img" aria-labelledby="svgcid--msc080-w5rftl"><defs><style>#comp-km0sgft1 svg [data-color="1"] {fill: #C7C7C7;}</style></defs><title id="svgcid--msc080-w5rftl"></title>
    <g>
        <path d="M135.75 138.69H37.438c-4.928 0-8.938-4.005-8.938-8.929V61.31c0-4.924 4.009-8.929 8.938-8.929h98.312c4.928 0 8.937 4.005 8.937 8.929v68.452c0 4.923-4.009 8.928-8.937 8.928zM37.438 58.333a2.98 2.98 0 0 0-2.979 2.976v68.452a2.98 2.98 0 0 0 2.979 2.976h98.312a2.98 2.98 0 0 0 2.979-2.976V61.31a2.98 2.98 0 0 0-2.979-2.976H37.438z" fill="#C7C7C7" data-color="1"></path>
        <path d="M109.81 161.628l-5.086-5.08H74.421l-5.086 5.08-4.213-4.209 5.958-5.952a2.98 2.98 0 0 1 2.106-.872h32.771c.791 0 1.548.314 2.106.872l5.958 5.952-4.211 4.209z" fill="#C7C7C7" data-color="1"></path>
        <path fill="#C7C7C7" d="M102.979 135.714v11.905h-5.958v-11.905h5.958z" data-color="1"></path>
        <path fill="#C7C7C7" d="M82.125 135.714v11.905h-5.958v-11.905h5.958z" data-color="1"></path>
        <path d="M162.562 162.5h-32.771c-4.928 0-8.938-4.005-8.938-8.929v-11.905h5.958v11.905a2.98 2.98 0 0 0 2.979 2.976h32.771a2.98 2.98 0 0 0 2.979-2.976V46.429a2.98 2.98 0 0 0-2.979-2.976H129.79a2.98 2.98 0 0 0-2.979 2.976v2.976h-5.958v-2.976c0-4.924 4.009-8.929 8.938-8.929h32.771c4.928 0 8.938 4.005 8.938 8.929v107.143c0 4.923-4.009 8.928-8.938 8.928z" fill="#C7C7C7" data-color="1"></path>
        <path fill="#C7C7C7" d="M94.042 123.81v5.952h-8.938v-5.952h8.938z" data-color="1"></path>
        <path fill="#C7C7C7" d="M150.646 144.643v5.952h-8.938v-5.952h8.938z" data-color="1"></path>
    </g>
</svg>