<svg xmlns:xlink="http://www.w3.org/1999/xlink" preserveAspectRatio="xMidYMid meet" data-bbox="15.715 21.126 169.999 156.8" viewBox="15.715 21.126 169.999 156.8" height="200" width="200" xmlns="http://www.w3.org/2000/svg" data-type="color" role="img" aria-labelledby="svgcid-dlf76ib5b07f"><defs><style>#comp-klvd6nju svg [data-color="1"] {fill: #2C497F;}</style></defs><title id="svgcid-dlf76ib5b07f"></title>
    <g>
        <path d="M151.948 84.001c7.171 0 13.726-2.605 18.799-6.904-10.01-.399-20.381-4.763-28.557-12.939-7.896-7.896-12.246-17.84-12.894-27.528a28.972 28.972 0 0 0-6.457 18.262c0 16.077 13.032 29.109 29.109 29.109z" fill="#2C497F" data-color="1"></path>
        <path d="M155.052 21.126c-9.301 0-17.999 4.164-23.86 11.425a1.516 1.516 0 0 0-.219.408c-.222.269-.372.6-.372.976 0 .372.148.699.366.967.987 10.033 5.647 19.666 13.23 27.25 8.202 8.203 18.713 12.96 29.593 13.393l.062.002c.367 0 .723-.13 1.004-.368 6.901-5.848 10.858-14.373 10.858-23.389 0-16.91-13.754-30.664-30.662-30.664zm27.557 30.661c0 2.662-.415 5.267-1.151 7.765-.005 0-.009-.003-.013-.003h-6.598v-10.09h7.644c.065.769.118 1.542.118 2.328zm-10.867 20.499c-3.994-.389-7.913-1.41-11.65-3.004 0-.01.006-.019.006-.029v-6.598h11.644v9.631zm0-41.845v1.941h-11.644v-7.666a27.409 27.409 0 0 1 11.737 5.265 1.494 1.494 0 0 0-.093.46zm0 5.045v10.867h-11.644V35.486h11.644zm-14.749 10.868h-10.867V35.486h10.867v10.868zm-13.972 0h-5.875a39.643 39.643 0 0 1-2.96-10.867h8.835v10.867zm0 3.105v6.671a43.484 43.484 0 0 1-4.383-6.671h4.383zm3.085 10.185c.002-.033.019-.061.019-.095v-10.09h10.867V59.55h-10.091c-.259 0-.492.079-.707.191-.03-.031-.057-.065-.088-.097zm10.887 3.011v5.155a43.536 43.536 0 0 1-7.654-5.155h7.654zm3.105-3.105V49.459h11.644V59.55h-11.644zm14.749-13.196V35.486h2.373c2.344 3.178 4.041 6.858 4.846 10.867h-7.219zm-17.854-22.025v8.052h-10.867v-6.598c0-.023-.012-.042-.013-.064a27.543 27.543 0 0 1 8.94-1.489c.654.001 1.296.054 1.94.099zm-13.972 2.686v5.366h-7.473a27.455 27.455 0 0 1 7.473-5.366zm31.826 43.88v-8.24h5.503a27.546 27.546 0 0 1-5.503 8.24z" fill="#2C497F" data-color="1"></path>
        <path d="M159.71 150.759H75.876c-5.779 0-10.479-4.701-10.479-10.479 0-4.513 2.873-8.358 6.882-9.83 2.408 2.83 6.314 2.456 6.314 2.456l8.04-8.04c2.206 1.027 4.754 1.646 7.646 1.827l.097.003c.352 0 .694-.12.97-.34l47.091-37.648a1.554 1.554 0 0 0-.655-2.734c-.661-.138-16.272-3.601-22.118-22.358a1.555 1.555 0 0 0-1.158-1.057 1.549 1.549 0 0 0-1.487.49l-39.33 44.504a1.556 1.556 0 0 0-.385.925c-.014.21-.215 3.801 1.327 7.764l-5.937 6.453-2.251 2.447c.044.962.192 1.79.401 2.53-5.004 2.005-8.552 6.895-8.552 12.607 0 7.491 6.094 13.584 13.584 13.584h83.834c5.778 0 10.479 4.701 10.479 10.479s-4.701 10.479-10.479 10.479H29.298c-5.779 0-10.479-4.701-10.479-10.479a1.552 1.552 0 1 0-3.104 0c0 7.491 6.094 13.584 13.584 13.584H159.71c7.491 0 13.584-6.093 13.584-13.584s-6.093-13.583-13.584-13.583zm-42.127-83.661c5.25 13.775 15.536 19.145 20.614 21.023l-44.314 35.428c-12.765-1.117-13.5-11.847-13.496-14.361l37.196-42.09z" fill="#2C497F" data-color="1"></path>
    </g>
</svg>