<svg xmlns:xlink="http://www.w3.org/1999/xlink" xmlns="http://www.w3.org/2000/svg" preserveAspectRatio="xMidYMid meet" data-bbox="28.5 37.5 143 125" height="125" width="143" data-type="color" role="img" aria-labelledby="svgcid-4h90b5-f4uudf" style=""><rect id="backgroundrect" width="100%" height="100%" x="0" y="0" fill="none" stroke="none"/><defs><style>#comp-klmtzaze__item1 svg [data-color="1"] {fill: #C7C7C7;}</style></defs><title id="svgcid-4h90b5-f4uudf"/>
    
<g class="currentLayer" style=""><title>Layer 1</title><g id="svg_1" class="selected" fill="#142d38" fill-opacity="1">
        <path d="M108.47727501392365,100.73906799193584 H10.165275013923647 c-4.928,0 -8.938,-3.966163673400879 -8.938,-8.842415840148925 V24.109418791496395 c0,-4.876252166748047 4.009,-8.842415840148925 8.938,-8.842415840148925 h98.312 c4.928,0 8.937,3.966163673400879 8.937,8.842415840148925 v67.78822366333007 c0,4.875261863708496 -4.009,8.841425537109377 -8.937,8.841425537109377 zM10.165275013923647,21.161286642753716 a2.98,2.951103057861328 0 0 0 -2.979,2.947141845703125 v67.78822366333007 a2.98,2.951103057861328 0 0 0 2.979,2.947141845703125 h98.312 a2.98,2.951103057861328 0 0 0 2.979,-2.947141845703125 V24.109418791496395 a2.98,2.951103057861328 0 0 0 -2.979,-2.947141845703125 H10.165275013923647 z" fill="#142d38" data-color="1" id="svg_2" fill-opacity="1"/>
        <path d="M82.53727501392365,123.45463911315166 l-5.086,-5.030739440917968 H47.14827501392365 l-5.086,5.030739440917968 l-4.213,-4.168185493469238 l5.958,-5.89428369140625 a2.98,2.951103057861328 0 0 1 2.106,-0.863544250488282 h32.771 c0.791,0 1.548,0.3109551544189455 2.106,0.863544250488282 l5.958,5.89428369140625 l-4.211,4.168185493469238 z" fill="#142d38" data-color="1" id="svg_3" fill-opacity="1"/>
        <path fill="#142d38" d="M75.70627501392364,97.79192614623271 v11.789557685852051 h-5.958 v-11.789557685852051 h5.958 z" data-color="1" id="svg_4" fill-opacity="1"/>
        <path fill="#142d38" d="M54.852275013923645,97.79192614623271 v11.789557685852051 h-5.958 v-11.789557685852051 h5.958 z" data-color="1" id="svg_5" fill-opacity="1"/>
        <path d="M135.28927501392366,124.31818336363995 h-32.771 c-4.928,0 -8.938,-3.966163673400879 -8.938,-8.842415840148925 v-11.789557685852051 h5.958 v11.789557685852051 a2.98,2.951103057861328 0 0 0 2.979,2.947141845703125 h32.771 a2.98,2.951103057861328 0 0 0 2.979,-2.947141845703125 V9.372719259941217 a2.98,2.951103057861328 0 0 0 -2.979,-2.947141845703125 H102.51727501392364 a2.98,2.951103057861328 0 0 0 -2.979,2.947141845703125 v2.947141845703125 h-5.958 v-2.947141845703125 c0,-4.876252166748047 4.009,-8.842415840148925 8.938,-8.842415840148925 h32.771 c4.928,0 8.938,3.966163673400879 8.938,8.842415840148925 v106.10403856658935 c0,4.875261863708496 -4.009,8.841425537109377 -8.938,8.841425537109377 z" fill="#142d38" data-color="1" id="svg_6" fill-opacity="1"/>
        <path fill="#142d38" d="M66.76927501392365,86.00335876342022 v5.89428369140625 h-8.938 v-5.89428369140625 h8.938 z" data-color="1" id="svg_7" fill-opacity="1"/>
        <path fill="#142d38" d="M123.37327501392363,106.63434198638164 v5.89428369140625 h-8.938 v-5.89428369140625 h8.938 z" data-color="1" id="svg_8" fill-opacity="1"/>
    </g></g></svg>