<svg xmlns:xlink="http://www.w3.org/1999/xlink" preserveAspectRatio="xMidYMid meet" data-bbox="30.5 45 139 110" viewBox="30.5 45 139 110" height="200" width="200" xmlns="http://www.w3.org/2000/svg" data-type="color" role="img" aria-labelledby="svgcid-fnbjvdidvz97"><defs><style>#comp-klvd4yb7 svg [data-color="1"] {fill: #2C497F;}</style></defs><title id="svgcid-fnbjvdidvz97"></title>
    <g>
        <path d="M166.604 128.947H33.396a2.894 2.894 0 0 1-2.896-2.895V47.895A2.894 2.894 0 0 1 33.396 45h133.208a2.894 2.894 0 0 1 2.896 2.895v78.158a2.894 2.894 0 0 1-2.896 2.894zm-130.312-5.789h127.417V50.789H36.292v72.369z" fill="#2C497F" data-color="1"></path>
        <path d="M88.417 108.684a2.892 2.892 0 0 1-2.896-2.895V71.053c0-1.043.56-2.006 1.468-2.519a2.888 2.888 0 0 1 2.918.037l28.958 17.368a2.896 2.896 0 0 1 0 4.964l-28.958 17.368a2.889 2.889 0 0 1-1.49.413zm2.895-32.519v24.512l20.435-12.256-20.435-12.256z" fill="#2C497F" data-color="1"></path>
        <path fill="#2C497F" d="M169.5 140.526v5.789H82.625v-5.789H169.5z" data-color="1"></path>
        <path d="M68.146 155c-6.388 0-11.583-5.194-11.583-11.579s5.195-11.579 11.583-11.579 11.583 5.194 11.583 11.579S74.534 155 68.146 155zm0-17.368c-3.193 0-5.792 2.596-5.792 5.789s2.599 5.789 5.792 5.789c3.193 0 5.792-2.596 5.792-5.789s-2.599-5.789-5.792-5.789z" fill="#2C497F" data-color="1"></path>
        <path fill="#2C497F" d="M53.667 140.526v5.789H30.5v-5.789h23.167z" data-color="1"></path>
    </g>
</svg>