<svg xmlns:xlink="http://www.w3.org/1999/xlink" preserveAspectRatio="xMidYMid meet" data-bbox="19.999 47.867 160.001 104.266" xmlns="http://www.w3.org/2000/svg" width="200" height="200" viewBox="19.999 47.867 160.001 104.266" data-type="color" role="img" aria-labelledby="svgcid-5wd1qr-gq73b5"><defs><style>#comp-klvd6mss svg [data-color="1"] {fill: #2C497F;}
#comp-klvd6mss svg [data-color="2"] {fill: #2C497F;}</style></defs><title id="svgcid-5wd1qr-gq73b5"></title>
    <g>
        <path fill="#2C497F" d="M96.11 92.548l-22.382 47.439-.462.971-4.521 9.583h81.874a7.43 7.43 0 006.721-4.26l20.352-43.13c2.326-4.93-1.27-10.603-6.721-10.603H96.11z" data-color="1"></path>
        <path fill="#2C497F" d="M150.619 152.133H68.746a1.592 1.592 0 01-1.44-2.272l27.365-57.993a1.593 1.593 0 011.44-.913h74.86a8.98 8.98 0 017.621 4.193 8.978 8.978 0 01.539 8.682l-20.352 43.13a9.06 9.06 0 01-8.16 5.173zm-79.362-3.184h79.363a5.865 5.865 0 005.281-3.348l20.352-43.13a5.811 5.811 0 00-.349-5.618 5.81 5.81 0 00-4.932-2.713H97.119l-25.862 54.809z" data-color="2"></path>
        <path d="M171.115 92.546l-22.382 47.439H62.149l22.382-47.439h86.584z" fill="#FFFFFF" data-color="3"></path>
        <path fill="#2C497F" d="M148.733 141.576H62.148a1.592 1.592 0 01-1.44-2.272L83.09 91.865a1.593 1.593 0 011.44-.913h86.584a1.592 1.592 0 011.44 2.272l-22.382 47.439a1.589 1.589 0 01-1.439.913zm-84.073-3.184h83.064l20.88-44.255H85.54l-20.88 44.255z" data-color="2"></path>
        <path d="M157.6 99.425l-15.697 33.271H75.855l15.696-33.271H157.6z" fill="#FFFFFF" data-color="3"></path>
        <path fill="#2C497F" d="M141.903 134.288H75.855a1.592 1.592 0 01-1.44-2.272l15.696-33.271a1.593 1.593 0 011.44-.913H157.6a1.592 1.592 0 011.44 2.272l-15.697 33.271a1.593 1.593 0 01-1.44.913zm-63.537-3.184h62.528l14.195-30.087H92.56l-14.194 30.087z" data-color="2"></path>
        <path fill="#FFFFFF" d="M62.899 49.459H88.81c15.205 0 27.53 12.326 27.53 27.53v43.523l-15.993-15.993H62.899c-15.204 0-27.53-12.326-27.53-27.53.001-15.205 12.326-27.53 27.53-27.53z" data-color="3"></path>
        <path fill="#2C497F" d="M116.341 122.104c-.415 0-.822-.162-1.126-.466l-15.527-15.526H62.9c-16.058 0-29.122-13.064-29.122-29.122S46.841 47.867 62.9 47.867h25.91c16.058 0 29.122 13.064 29.122 29.122v43.523a1.593 1.593 0 01-1.591 1.592zM62.9 51.051c-14.302 0-25.938 11.636-25.938 25.938s11.636 25.938 25.938 25.938h37.448c.422 0 .827.168 1.126.466l13.275 13.275v-39.68c0-14.302-11.636-25.938-25.938-25.938H62.9z" data-color="2"></path>
        <path d="M97.472 76.819a3.926 3.926 0 11-7.852 0 3.926 3.926 0 017.852 0z" fill="#2C497F" data-color="1"></path>
        <path fill="#2C497F" d="M93.546 82.336a5.524 5.524 0 01-5.518-5.518 5.524 5.524 0 015.518-5.518 5.524 5.524 0 015.518 5.518 5.525 5.525 0 01-5.518 5.518zm0-7.851c-1.287 0-2.334 1.047-2.334 2.334s1.047 2.334 2.334 2.334 2.334-1.047 2.334-2.334-1.048-2.334-2.334-2.334z" data-color="2"></path>
        <path d="M79.781 76.819a3.926 3.926 0 11-7.852 0 3.926 3.926 0 017.852 0z" fill="#2C497F" data-color="1"></path>
        <path fill="#2C497F" d="M75.855 82.336a5.524 5.524 0 01-5.518-5.518 5.524 5.524 0 015.518-5.518 5.524 5.524 0 015.518 5.518 5.525 5.525 0 01-5.518 5.518zm0-7.851c-1.287 0-2.334 1.047-2.334 2.334s1.047 2.334 2.334 2.334 2.334-1.047 2.334-2.334-1.048-2.334-2.334-2.334z" data-color="2"></path>
        <path d="M62.09 76.819a3.926 3.926 0 11-7.852 0 3.926 3.926 0 017.852 0z" fill="#2C497F" data-color="1"></path>
        <path fill="#2C497F" d="M58.164 82.336a5.524 5.524 0 01-5.517-5.518 5.524 5.524 0 015.517-5.518 5.524 5.524 0 015.518 5.518 5.525 5.525 0 01-5.518 5.518zm0-7.851c-1.287 0-2.333 1.047-2.333 2.334s1.046 2.334 2.333 2.334 2.334-1.047 2.334-2.334-1.048-2.334-2.334-2.334z" data-color="2"></path>
        <path fill="#FFFFFF" d="M96.995 140.003l-2.32 4.922a9.79 9.79 0 01-8.856 5.616H28.987c-5.418 0-8.993-5.638-6.683-10.538h74.691z" data-color="3"></path>
        <path fill="#2C497F" d="M85.82 152.133H28.986c-3.092 0-5.928-1.559-7.584-4.171s-1.858-5.841-.54-8.638a1.591 1.591 0 011.44-.913h74.692a1.592 1.592 0 011.44 2.271l-2.32 4.922a11.424 11.424 0 01-10.294 6.529zm-62.418-10.538a5.763 5.763 0 00.689 4.662 5.767 5.767 0 004.895 2.692H85.82a8.232 8.232 0 007.416-4.703l1.25-2.652H23.402z" data-color="2"></path>
    </g>
</svg>