<svg xmlns:xlink="http://www.w3.org/1999/xlink" xmlns="http://www.w3.org/2000/svg" preserveAspectRatio="xMidYMid meet" data-bbox="52.5 61.51 127.572 93.99" height="93.99" width="127.572" data-type="color" role="img" aria-labelledby="svgcid-nr1zup-t1qvvd"><rect id="backgroundrect" width="100%" height="100%" x="0" y="0" fill="none" stroke="none"/><defs><style>#comp-km0sji3g svg [data-color="1"] {fill: #C7C7C7;}</style></defs><title id="svgcid-nr1zup-t1qvvd"/>
    
<g class="currentLayer" style=""><title>Layer 1</title><g id="svg_1" class="" fill-opacity="1" fill="#142d38">
        <path d="M122.55279061698914,10.6508219423294 l-2.952,-5.398 l-2.9530000000000003,5.398 l-5.398,2.952 l5.398,2.9530000000000003 l2.9530000000000003,5.398 l2.952,-5.398 l5.398,-2.9530000000000003 l-5.398,-2.952 z" fill="#142d38" data-color="1" id="svg_2"/>
        <path d="M103.22979061698913,27.079821942329403 l-2.9530000000000003,5.398 L94.87879061698914,35.4308219423294 l5.398,2.952 l2.9530000000000003,5.398 l2.9530000000000003,-5.398 l5.398,-2.952 l-5.398,-2.9530000000000003 l-2.9530000000000003,-5.398 z" fill="#142d38" data-color="1" id="svg_3"/>
        <path d="M76.40079061698913,40.3118219423294 a2.5,2.5 0 0 0 -2.5,2.5 v45.87 H5.378790616989136 V12.420821942329411 h59.413 a2.5,2.5 0 1 0 0,-5 H2.8787906169891357 a2.5,2.5 0 0 0 -2.5,2.5 V91.1818219423294 a2.5,2.5 0 0 0 2.5,2.5 h73.522 a2.5,2.5 0 0 0 2.5,-2.5 v-48.37 a2.5,2.5 0 0 0 -2.5,-2.5 z" fill="#142d38" data-color="1" id="svg_4"/>
        <path d="M83.44979061698913,1.6028219423294061 l-36.938,36.938 c-0.19000000000000025,0.19000000000000025 -0.3480000000000007,0.4090000000000003 -0.4690000000000003,0.650000000000001 l-5.472,10.945 a2.5,2.5 0 0 0 3.355,3.354 l10.945,-5.474 c0.2400000000000002,-0.12000000000000002 0.459,-0.278 0.649000000000001,-0.468 l31.462,-31.462 l0.003000000000000008,-0.0020000000000000035 l0.0020000000000000035,-0.003000000000000008 l5.472,-5.472 c2.912,-2.912 2.1630000000000003,-6.803 -0.02100000000000004,-8.986 c-2.184,-2.183 -6.076,-2.932 -8.988,-0.020000000000000028 zm-31.178,42.123 l-3.875,1.9380000000000002 l1.937,-3.874 l29.412,-29.413 l1.937,1.9380000000000002 l-29.411,29.411 zm36.651,-36.651 l-3.705,3.705 l-1.937,-1.9380000000000002 l3.7030000000000003,-3.704 c0.8260000000000006,-0.8240000000000006 1.557,-0.3400000000000006 1.917,0.02100000000000004 c0.3630000000000003,0.3610000000000003 0.8460000000000006,1.091 0.022000000000000054,1.916 z" fill="#142d38" data-color="1" id="svg_5"/>
        <path d="M60.378790616989136,61.18182194232941 h-40 a2.5,2.5 0 1 0 0,5 h40 a2.5,2.5 0 1 0 0,-5 z" fill="#142d38" data-color="1" id="svg_6"/>
        <path d="M60.378790616989136,73.1818219423294 h-40 a2.5,2.5 0 1 0 0,5 h40 a2.5,2.5 0 1 0 0,-5 z" fill="#142d38" data-color="1" id="svg_7"/>
    </g></g></svg>