<svg xmlns:xlink="http://www.w3.org/1999/xlink" preserveAspectRatio="xMidYMid meet" data-bbox="28.4 38.8 143.2 122.4" viewBox="28.4 38.8 143.2 122.4" height="200" width="200" xmlns="http://www.w3.org/2000/svg" data-type="color" role="img" aria-labelledby="svgcid--izooqcpn4vju"><defs><style>#comp-km0shaos svg [data-color="1"] {fill: #C7C7C7;}</style></defs><title id="svgcid--izooqcpn4vju"></title>
    <g>
        <path d="M97.438 141.033H31.402a3.004 3.004 0 0 1-3.002-3.007V41.807a3.004 3.004 0 0 1 3.002-3.007h120.066a3.004 3.004 0 0 1 3.002 3.007V86.91h-6.003V44.814H34.403v90.206h63.035v6.013z" fill="#C7C7C7" data-color="1"></path>
        <path d="M106.443 62.855H73.425a3.004 3.004 0 0 1-3.002-3.007V41.807a3.004 3.004 0 0 1 3.002-3.007h33.018a3.004 3.004 0 0 1 3.002 3.007v18.041a3.004 3.004 0 0 1-3.002 3.007zm-30.017-6.014h27.015V44.814H76.426v12.027z" fill="#C7C7C7" data-color="1"></path>
        <path fill="#C7C7C7" d="M46.41 122.992v6.014h-6.003v-6.014h6.003z" data-color="1"></path>
        <path fill="#C7C7C7" d="M58.416 122.992v6.014h-6.003v-6.014h6.003z" data-color="1"></path>
        <path fill="#C7C7C7" d="M70.423 122.992v6.014H64.42v-6.014h6.003z" data-color="1"></path>
        <path fill="#C7C7C7" d="M167.355 161.2l-18.009-18.041 4.244-4.252 18.01 18.041-4.245 4.252z" data-color="1"></path>
        <path d="M130.506 153.012c-18.206 0-33.018-14.832-33.018-33.062 0-18.232 14.812-33.064 33.018-33.064s33.018 14.832 33.018 33.064c0 18.23-14.812 33.062-33.018 33.062zm0-60.112c-14.897 0-27.015 12.135-27.015 27.05 0 14.914 12.118 27.048 27.015 27.048s27.015-12.135 27.015-27.048c0-14.916-12.118-27.05-27.015-27.05z" fill="#C7C7C7" data-color="1"></path>
        <path fill="#C7C7C7" d="M118.449 107.958v24.055h-6.003v-24.055h6.003z" data-color="1"></path>
        <path fill="#C7C7C7" d="M127.454 107.958v24.055h-6.003v-24.055h6.003z" data-color="1"></path>
        <path fill="#C7C7C7" d="M139.461 107.958v24.055h-6.003v-24.055h6.003z" data-color="1"></path>
        <path fill="#C7C7C7" d="M148.466 107.958v24.055h-6.003v-24.055h6.003z" data-color="1"></path>
    </g>
</svg>