<svg xmlns:xlink="http://www.w3.org/1999/xlink" xmlns="http://www.w3.org/2000/svg" preserveAspectRatio="xMidYMid meet" data-bbox="28.4 38.8 143.2 122.4" height="122.4" width="143.2" data-type="color" role="img" aria-labelledby="svgcid--izooqcpn4vju" style=""><rect id="backgroundrect" width="100%" height="100%" x="0" y="0" fill="none" stroke="none"/><defs><style>#comp-km0shaos svg [data-color="1"] {fill: #C7C7C7;}</style></defs><title id="svgcid--izooqcpn4vju"/>
    
<g class="currentLayer" style=""><title>Layer 1</title><g id="svg_1" class="selected" fill-opacity="1" fill="#142d38">
        <path d="M69.31039569207717,100.92622485701985 H4.6718075655533475 a2.9404312607074563,2.9296288945626583 0 0 1 -2.9384735834366786,-2.932554622486656 V4.156798528166895 a2.9404312607074563,2.9296288945626583 0 0 1 2.9384735834366786,-2.932554622486656 h117.52523959657171 a2.9404312607074563,2.9296288945626583 0 0 1 2.9384735834366786,2.932554622486656 V48.14316738018407 h-5.875968328237969 V7.089353150653546 H7.609302310354639 v87.97273770403434 h61.70109338172253 v5.864134002331979 z" fill="#142d38" data-color="1" id="svg_2"/>
        <path d="M78.12483760375181,24.683705642932136 H45.80554354048991 a2.9404312607074563,2.9296288945626583 0 0 1 -2.9384735834366786,-2.932554622486656 V4.156798528166895 a2.9404312607074563,2.9296288945626583 0 0 1 2.9384735834366786,-2.932554622486656 h32.31929406326191 a2.9404312607074563,2.9296288945626583 0 0 1 2.9384735834366786,2.932554622486656 v17.594352492278603 a2.9404312607074563,2.9296288945626583 0 0 1 -2.9384735834366786,2.932554622486656 zm-29.381799318460622,-5.865109244973312 h26.44332573502394 V7.089353150653546 H48.74303828529119 v11.72924324730529 z" fill="#142d38" data-color="1" id="svg_3"/>
        <path fill="#142d38" d="M19.36221780546596,83.33187236474127 v5.865109244973312 h-5.875968328237969 v-5.865109244973312 h5.875968328237969 z" data-color="1" id="svg_4"/>
        <path fill="#142d38" d="M31.114154461941904,83.33187236474127 v5.865109244973312 h-5.875968328237969 v-5.865109244973312 h5.875968328237969 z" data-color="1" id="svg_5"/>
        <path fill="#142d38" d="M42.867069957053225,83.33187236474127 v5.865109244973312 H36.99110162881526 v-5.865109244973312 h5.875968328237969 z" data-color="1" id="svg_6"/>
        <path fill="#142d38" d="M137.74785656254426,120.59394320477122 l-17.627904984713904,-17.594352492278603 l4.154191168589361,-4.146731710945548 l17.628883823349298,17.594352492278603 l-4.155170007224751,4.146731710945548 z" data-color="1" id="svg_7"/>
        <path d="M101.6786316871085,112.6086564575412 c-17.820736195885466,0 -32.31929406326191,-14.464798856242794 -32.31929406326191,-32.24347220773322 c0,-17.7806238367731 14.498557867376443,-32.24542269301589 32.31929406326191,-32.24542269301589 s32.31929406326191,14.464798856242794 32.31929406326191,32.24542269301589 c0,17.778673351490433 -14.498557867376443,32.24347220773322 -32.31929406326191,32.24347220773322 zm0,-58.62378565577581 c-14.581759151384478,0 -26.44332573502394,11.834569452569195 -26.44332573502394,26.38031344804258 c0,14.544768752832054 11.861566583639464,26.378362962759912 26.44332573502394,26.378362962759912 s26.44332573502394,-11.834569452569195 26.44332573502394,-26.378362962759912 c0,-14.546719238114717 -11.861566583639464,-26.38031344804258 -26.44332573502394,-26.38031344804258 z" fill="#142d38" data-color="1" id="svg_8"/>
        <path fill="#142d38" d="M89.87677426022778,68.67007449494932 v23.459461737251914 h-5.875968328237969 v-23.459461737251914 h5.875968328237969 z" data-color="1" id="svg_9"/>
        <path fill="#142d38" d="M98.69121617190243,68.67007449494932 v23.459461737251914 h-5.875968328237969 v-23.459461737251914 h5.875968328237969 z" data-color="1" id="svg_10"/>
        <path fill="#142d38" d="M110.44413166701375,68.67007449494932 v23.459461737251914 h-5.875968328237969 v-23.459461737251914 h5.875968328237969 z" data-color="1" id="svg_11"/>
        <path fill="#142d38" d="M119.2585735786884,68.67007449494932 v23.459461737251914 h-5.875968328237969 v-23.459461737251914 h5.875968328237969 z" data-color="1" id="svg_12"/>
    </g></g></svg>