<svg xmlns:xlink="http://www.w3.org/1999/xlink" preserveAspectRatio="xMidYMid meet" data-bbox="20.5 54.915 159 90.17" viewBox="20.5 54.915 159 90.17" height="200" width="200" xmlns="http://www.w3.org/2000/svg" data-type="color" role="img" aria-labelledby="svgcid-o3fv59-wp3ndf"><defs><style>#comp-km0shyqh svg [data-color="1"] {fill: #C7C7C7;}
#comp-km0shyqh svg [data-color="2"] {fill: #C7C7C7;}
#comp-km0shyqh svg [data-color="3"] {fill: #C7C7C7;}</style></defs><title id="svgcid-o3fv59-wp3ndf"></title>
    <g>
        <path fill="#C7C7C7" d="M179.5 132.008v13.077h-49.344v-13.077H179.5z" data-color="1"></path>
        <path fill="#C7C7C7" d="M179.5 112.735v13.077h-49.344v-13.077H179.5z" data-color="1"></path>
        <path fill="#C7C7C7" d="M179.5 93.461v13.077h-49.344V93.461H179.5z" data-color="1"></path>
        <path fill="#C7C7C7" d="M179.5 74.188v13.077h-49.344V74.188H179.5z" data-color="1"></path>
        <path fill="#C7C7C7" d="M124.672 132.008v13.077H75.328v-13.077h49.344z" data-color="2"></path>
        <path fill="#C7C7C7" d="M124.672 112.735v13.077H75.328v-13.077h49.344z" data-color="2"></path>
        <path fill="#C7C7C7" d="M69.844 132.008v13.077H20.5v-13.077h49.344z" data-color="3"></path>
        <path fill="#C7C7C7" d="M69.844 112.735v13.077H20.5v-13.077h49.344z" data-color="3"></path>
        <path fill="#C7C7C7" d="M69.844 93.461v13.077H20.5V93.461h49.344z" data-color="3"></path>
        <path fill="#C7C7C7" d="M69.844 74.188v13.077H20.5V74.188h49.344z" data-color="3"></path>
        <path fill="#C7C7C7" d="M69.844 54.915v13.077H20.5V54.915h49.344z" data-color="3"></path>
    </g>
</svg>