<svg xmlns:xlink="http://www.w3.org/1999/xlink" xmlns="http://www.w3.org/2000/svg" preserveAspectRatio="xMidYMid meet" data-bbox="20.5 54.915 159 90.17" height="90.17" width="159" data-type="color" role="img" aria-labelledby="svgcid-o3fv59-wp3ndf" style=""><rect id="backgroundrect" width="100%" height="100%" x="0" y="0" fill="none" stroke="none"/><defs><style>#comp-km0shyqh svg [data-color="1"] {fill: #C7C7C7;}
#comp-km0shyqh svg [data-color="2"] {fill: #C7C7C7;}
#comp-km0shyqh svg [data-color="3"] {fill: #C7C7C7;}</style></defs><title id="svgcid-o3fv59-wp3ndf"/>
    
<g class="currentLayer" style=""><title>Layer 1</title><g id="svg_1" class="selected" fill-opacity="1" fill="#142d38">
        <path fill="#142d38" d="M159.50000077486038,77.46254674959184 v13.077 h-49.344 v-13.077 H159.50000077486038 z" data-color="1" id="svg_2"/>
        <path fill="#142d38" d="M159.50000077486038,58.18954674959183 v13.077 h-49.344 v-13.077 H159.50000077486038 z" data-color="1" id="svg_3"/>
        <path fill="#142d38" d="M159.50000077486038,38.915546749591826 v13.077 h-49.344 V38.915546749591826 H159.50000077486038 z" data-color="1" id="svg_4"/>
        <path fill="#142d38" d="M159.50000077486038,19.64254674959183 v13.077 h-49.344 V19.64254674959183 H159.50000077486038 z" data-color="1" id="svg_5"/>
        <path fill="#142d38" d="M104.67200077486038,77.46254674959184 v13.077 H55.328000774860385 v-13.077 h49.344 z" data-color="2" id="svg_6"/>
        <path fill="#142d38" d="M104.67200077486038,58.18954674959183 v13.077 H55.328000774860385 v-13.077 h49.344 z" data-color="2" id="svg_7"/>
        <path fill="#142d38" d="M49.844000774860376,77.46254674959184 v13.077 H0.5000007748603821 v-13.077 h49.344 z" data-color="3" id="svg_8"/>
        <path fill="#142d38" d="M49.844000774860376,58.18954674959183 v13.077 H0.5000007748603821 v-13.077 h49.344 z" data-color="3" id="svg_9"/>
        <path fill="#142d38" d="M49.844000774860376,38.915546749591826 v13.077 H0.5000007748603821 V38.915546749591826 h49.344 z" data-color="3" id="svg_10"/>
        <path fill="#142d38" d="M49.844000774860376,19.64254674959183 v13.077 H0.5000007748603821 V19.64254674959183 h49.344 z" data-color="3" id="svg_11"/>
        <path fill="#142d38" d="M49.844000774860376,0.36954674959182654 v13.077 H0.5000007748603821 V0.36954674959182654 h49.344 z" data-color="3" id="svg_12"/>
    </g></g></svg>