<svg xmlns:xlink="http://www.w3.org/1999/xlink" preserveAspectRatio="xMidYMid meet" data-bbox="43 41 114 118" viewBox="43 41 114 118" height="200" width="200" xmlns="http://www.w3.org/2000/svg" data-type="color" role="img"><defs><style>#comp-kloqfb73 svg [data-color="1"] {fill: #BBC7DF;}</style></defs>
    <g>
        <path d="M157 152.999l-22.019-22.195c19.248-20.952 18.781-53.777-1.419-74.14C123.539 46.563 110.213 41 96.037 41c-14.174 0-27.499 5.563-37.522 15.662-20.687 20.857-20.687 54.79 0 75.646 10.021 10.103 23.349 15.667 37.522 15.667 12.031 0 23.445-4.021 32.752-11.411L151.049 159l5.951-6.001zM64.468 126.31c-17.438-17.577-17.438-46.071 0-63.647 8.718-8.786 20.142-13.18 31.569-13.18s22.856 4.393 31.571 13.18c17.436 17.576 17.436 46.07 0 63.647-8.716 8.786-20.145 13.18-31.571 13.18-11.426-.001-22.851-4.394-31.569-13.18z" fill="#BBC7DF" data-color="1"></path>
    </g>
</svg>