<svg xmlns:xlink="http://www.w3.org/1999/xlink" xmlns="http://www.w3.org/2000/svg" preserveAspectRatio="xMidYMid meet" data-bbox="18.398 41.609 162.736 117.047" height="117.047" width="162.736" data-name="Layer 1" data-type="color" role="img" aria-labelledby="svgcid-yg15ptcw0sm"><rect id="backgroundrect" width="100%" height="100%" x="0" y="0" fill="none" stroke="none"/><defs><style>#comp-km0sjy5e svg [data-color="1"] {fill: #C7C7C7;}</style></defs><title id="svgcid-yg15ptcw0sm"/>
    
<g class="currentLayer" style=""><title>Layer 1</title><g id="svg_1" class="selected" fill-opacity="1" fill="#142d38">
        <path fill="#142d38" d="M41.39918246841431,67.77693997192382 a12.158,12.158 0 1 0 12.157,12.157 a12.171,12.171 0 0 0 -12.157,-12.157 zm0,20.315 a8.158,8.158 0 1 1 8.157,-8.158 a8.168,8.168 0 0 1 -8.157,8.16 z" data-color="1" id="svg_2"/>
        <path fill="#142d38" d="M79.6661824684143,67.77693997192382 a12.158,12.158 0 1 0 12.157,12.157 a12.172,12.172 0 0 0 -12.157,-12.157 zm0,20.315 a8.158,8.158 0 1 1 8.157,-8.158 a8.169,8.169 0 0 1 -8.157,8.16 z" data-color="1" id="svg_3"/>
        <path fill="#142d38" d="M148.3051824684143,27.64993997192383 h-29.555 c-1.08,-11.931000000000001 -14.912,-21.345 -26.327,-21.345 H28.692182468414313 c-15.7,0 -28.476,15.175 -28.476,33.828 v32.7 c0,16.105 9.523,29.824 22.539,33.091 a26.212,26.212 0 0 0 -2,10.122 h4 c0,-10.792 7.468,-19.572 16.648,-19.572 s16.648,8.78 16.648,19.572 H63.01818246841431 c0,-10.792 7.469,-19.572 16.649,-19.572 s16.648,8.78 16.648,19.572 h4 a26.221,26.221 0 0 0 -2,-10.109 c13.043,-3.245 22.585,-16.968 22.585,-33.1 V42.541939971923824 c3.189,0.18200000000000013 5.245,0.2 6.516,0.21700000000000014 h0.21300000000000013 v58.265 c0,4.6560000000000015 0,17.026 12.017,17.026 h2 l-0.04900000000000004,-31.915 h2.109 v31.915 h2 c5.322,0 10.3,-5.628 10.486,-10.063 c0.536,-12.6 0.4380000000000003,-22.151 0.3740000000000003,-28.47 q-0.015000000000000015,-1.374 -0.024000000000000018,-2.563 a6.946,6.946 0 0 0 6.41,-6.926 V42.29893997192383 a14.666,14.666 0 0 0 -14.647,-14.649000000000001 zm-31.4,45.187 c0,14.693 -8.729,27.094 -20.5,29.434 c-3.755,-5.926 -9.857,-9.793 -16.738,-9.793 c-8.645,0 -16.062,6.1 -19.134,14.724 c-3.071,-8.625 -10.488,-14.724 -19.133,-14.724 c-6.878,0 -12.977,3.863 -16.732,9.784 c-11.742,-2.363 -20.45,-14.76 -20.45,-29.425 v-32.7 c0,-16.447 10.98,-29.828 24.476,-29.828 h63.731 c11.306000000000001,0 21.2,9.226 22.29,17.345 h-14.24 a2.593,2.593 0 0 0 -2.595,2.74 c0.139,2.367 1.53,10.185 13.636,11.4 c2.008,0.2 3.7880000000000003,0.35700000000000026 5.384,0.48300000000000026 zm42.055,-2.809 a2.9450000000000003,2.9450000000000003 0 0 1 -2.9450000000000003,2.946 h-0.012000000000000009 l-3.462,-0.01700000000000002 v2.01 c0,1.31 0.015000000000000015,2.839 0.033000000000000036,4.59 c0.06400000000000007,6.2780000000000005 0.16100000000000017,15.767 -0.3700000000000003,28.26 c-0.0860000000000001,2.008 -2.157,4.675 -4.49,5.752 v-31.434 h-10.12 l0.04900000000000004,31.752 c-3.319,-0.6170000000000005 -6.014,-3.2880000000000003 -6.014,-12.863 V42.29893997192383 c0,-0.2 0.01700000000000002,-0.36700000000000027 0.029000000000000026,-0.5 a2.624,2.624 0 0 0 -0.5690000000000005,-2.15 c-0.771,-0.8560000000000005 -1.6670000000000007,-0.8650000000000005 -3.63,-0.8860000000000007 c-2.179,-0.023000000000000034 -6.713,-0.07200000000000002 -15.544,-0.9560000000000005 c-6.961,-0.6950000000000008 -9.134,-3.879 -9.785,-6.154 h46.175 a10.662,10.662 0 0 1 10.65,10.649000000000001 z" data-color="1" id="svg_4"/>
        <path fill="#142d38" d="M142.17218246841432,26.23093997192383 a12.614,12.614 0 1 0 -12.614,-12.613 a12.627,12.627 0 0 0 12.614,12.613 zm0,-21.227 a8.614,8.614 0 1 1 -8.614,8.614 a8.624,8.624 0 0 1 8.614,-8.614 z" data-color="1" id="svg_5"/>
        <path fill="#142d38" d="M73.55718246841431,32.65993997192383 v4 H25.843182468414305 v-4 h47.714 z" data-color="1" id="svg_6"/>
        <path fill="#142d38" d="M60.48218246841431,50.092939971923826 v4 H25.843182468414305 v-4 h34.639 z" data-color="1" id="svg_7"/>
    </g></g></svg>